PathFileType	4	(X/Y/Z)	..\data\2014014\dynamic\2014014_C4_04.trc
DataRate	CameraRate	NumFrames	NumMarkers	Units	OrigDataRate	OrigDataStartFrame	OrigNumFrames
100.000000	100.000000	4	48	mm	100.000000	111	178
Frame#	Time	L_IAS			L_IPS			R_IPS			R_IAS			L_FTC			L_FLE			L_FME			L_FAX			L_TTC			L_FAL			L_TAM			L_FCC			L_FM1			L_FM2			L_FM5			R_FTC			R_FLE			R_FME			R_FAX			R_TTC			R_FAL			R_TAM			R_FCC			R_FM1			R_FM2			R_FM5			CV7			TV10			SXS			SJN			L_SAA			L_SAE			L_HLE			L_HME			L_UOA			L_RSP			L_UHE			L_HM2			L_HM5			R_SAA			R_SAE			R_HLE			R_HME			R_UOA			R_RSP			R_UHE			R_HM2			R_HM5			
		X1	Y1	Z1	X2	Y2	Z2	X3	Y3	Z3	X4	Y4	Z4	X5	Y5	Z5	X6	Y6	Z6	X7	Y7	Z7	X8	Y8	Z8	X9	Y9	Z9	X10	Y10	Z10	X11	Y11	Z11	X12	Y12	Z12	X13	Y13	Z13	X14	Y14	Z14	X15	Y15	Z15	X16	Y16	Z16	X17	Y17	Z17	X18	Y18	Z18	X19	Y19	Z19	X20	Y20	Z20	X21	Y21	Z21	X22	Y22	Z22	X23	Y23	Z23	X24	Y24	Z24	X25	Y25	Z25	X26	Y26	Z26	X27	Y27	Z27	X28	Y28	Z28	X29	Y29	Z29	X30	Y30	Z30	X31	Y31	Z31	X32	Y32	Z32	X33	Y33	Z33	X34	Y34	Z34	X35	Y35	Z35	X36	Y36	Z36	X37	Y37	Z37	X38	Y38	Z38	X39	Y39	Z39	X40	Y40	Z40	X41	Y41	Z41	X42	Y42	Z42	X43	Y43	Z43	X44	Y44	Z44	X45	Y45	Z45	X46	Y46	Z46	X47	Y47	Z47	X48	Y48	Z48	

112	1.11	1146.009887695313	983.0438232421877	-119.7296566040048	935.6274414062502	999.0757446289065	-28.94627714519412	934.8493652343752	997.8242187500002	68.94627714519412	1136.570190429688	975.5524902343752	159.7296566040048	1078.56103515625	887.443054199219	-168.8364664171059	1194.8056640625	493.9140930175782	-132.8068082918402	1199.405151367188	485.5138244628907	4.73616952572034	1196.598510742188	433.6386718750001	-127.5034208841393	1270.93212890625	445.214080810547	-68.54266881243612	1320.711303710938	76.53822326660158	-119.3286701318263	1341.153442382813	116.1014862060547	-17.89666597850206	1293.509887695313	14.38582515716553	-63.35014095580774	1484.7900390625	81.4967498779297	-34.67283560363096	1478.292724609375	98.55922698974612	-75.85478284948589	1440.306274414063	59.98612213134767	-136.6788472364645	1051.570678710938	874.7152099609377	201.77977018891	937.0779418945315	483.6876525878907	168.1761551397474	972.038024902344	483.5418701171876	39.89448362637252	902.0991821289065	436.4485168457032	167.9111784980278	968.480407714844	410.1446838378907	108.8162272066081	778.696472167969	80.2721633911133	159.7178475624646	824.4541015625002	100.121940612793	58.05492402872793	740.8522338867189	44.87356185913087	103.5203760469626	943.6724243164065	20.52206420898438	74.31989194537282	944.0837402343752	38.43297576904298	116.2531535677032	891.9282836914065	20.65951347351075	178.1868656505937	1008.133850097656	1522.70849609375	22.33197663849248	904.882263183594	1282.901123046875	22.33197663849248	1173.173706054688	1237.734130859375	22.33197663849248	1130.225830078125	1423.281127929688	22.23227489079067	968.7410278320315	1449.5302734375	-219.6455385149378	1015.101684570313	1441.14013671875	-176.1371861577316	948.050964355469	1106.49853515625	-258.8717543254914	923.4451904296877	1103.298828125	-174.535390332801	911.021423339844	1095.100219726563	-210.2361499973812	987.524597167969	837.8468017578127	-239.5967179865834	912.9554443359377	854.374450683594	-265.4190523397495	993.6080322265627	749.2985839843751	-244.7565623451693	888.7178344726565	773.947448730469	-246.8581665756566	1007.760192871094	1431.90625	259.6455385149378	1055.423095703125	1425.21630859375	216.1373355492392	1096.431274414063	1089.456665039063	304.6079114146845	1063.342163085938	1064.8994140625	207.9388096802291	1056.336303710938	1058.849609375	248.860189315611	1253.268920898438	873.4095458984377	279.4189228109762	1196.90283203125	858.6843872070315	306.295032088454	1315.802001953125	802.2589111328127	285.0291244398524	1221.714477539063	763.1803588867189	287.1250341336798	
113	1.12	1157.825805664063	981.3009033203127	-119.7296566040048	947.313171386719	997.5111083984377	-28.94627714519412	946.541931152344	996.4235839843752	68.94627714519412	1148.3828125	974.4822387695315	159.7296566040048	1090.12353515625	885.5727539062502	-168.8364664171059	1204.684814453125	492.0151672363282	-132.8068082918402	1207.979736328125	483.6385803222657	4.73616952572034	1207.535766601563	432.2105407714845	-127.5034208841393	1281.206665039063	444.6472778320314	-68.54266881243612	1336.767700195313	76.99460601806642	-119.3286701318263	1355.74951171875	116.2084732055664	-17.89666597850206	1309.689208984375	14.33973598480225	-63.35014095580774	1500.26220703125	83.85095977783205	-34.67283560363096	1494.42822265625	100.6209182739258	-75.85478284948589	1457.544799804688	61.51014709472658	-136.6788472364645	1062.490112304688	873.9205322265627	201.77977018891	945.111267089844	483.6457519531251	168.1761551397474	980.7058715820315	482.8885498046876	39.89448362637252	909.3204345703127	436.8580932617189	167.9111784980278	975.3867187500002	409.6784667968751	108.8162272066081	779.6406860351565	82.78579711914064	159.7178475624646	826.006286621094	101.971176147461	58.05492402872793	741.2704467773439	48.22906875610353	103.5203760469626	943.7801513671877	20.65057563781739	74.31989194537282	944.2178955078127	38.66861724853516	116.2531535677032	891.9570922851565	20.72224807739258	178.1868656505937	1019.157287597656	1521.236938476563	22.33197663849248	915.600280761719	1281.603759765625	22.33197663849248	1184.322509765625	1236.233154296875	22.33197663849248	1141.359985351563	1421.873901367188	22.23227489079067	979.7662353515627	1447.916870117188	-219.6455385149378	1026.086669921875	1439.49951171875	-176.1371861577316	958.5740966796877	1104.870361328125	-258.8717543254914	934.3090820312502	1101.735473632813	-174.535390332801	921.681579589844	1093.572509765625	-210.2361499973812	997.196716308594	836.1317138671877	-239.5967179865834	922.5694580078127	852.9219360351565	-265.4190523397495	1002.539672851563	747.2735595703126	-244.7565623451693	897.8756103515627	772.6126098632815	-246.8581665756566	1018.995971679688	1430.5224609375	259.6455385149378	1066.713012695313	1423.835205078125	216.1373355492392	1108.052368164063	1088.36572265625	304.6079114146845	1074.876342773438	1063.533081054688	207.9388096802291	1067.949584960938	1057.62841796875	248.860189315611	1265.143676757813	872.4826660156252	279.4189228109762	1208.838989257813	857.781677246094	306.295032088454	1327.901977539063	801.6148681640627	285.0291244398524	1234.005615234375	762.3195190429689	287.1250341336798	
114	1.13	1169.860473632813	979.7602539062502	-119.7296566040048	959.1999511718752	996.1338500976565	-28.94627714519412	958.4739379882815	995.1510009765627	68.94627714519412	1160.379150390625	973.4678955078127	159.7296566040048	1102.026733398438	884.036071777344	-168.8364664171059	1214.9501953125	490.3894348144532	-132.8068082918402	1217.1806640625	482.0908508300782	4.73616952572034	1218.392822265625	430.895233154297	-127.5034208841393	1291.537963867188	443.8694763183595	-68.54266881243612	1350.241088867188	76.99842071533205	-119.3286701318263	1368.282348632813	115.8071060180664	-17.89666597850206	1322.89599609375	14.42024040222168	-63.35014095580774	1513.19921875	84.60843658447267	-34.67283560363096	1508.018798828125	100.9996032714844	-75.85478284948589	1471.784790039063	61.59336090087892	-136.6788472364645	1073.638916015625	873.199645996094	201.77977018891	953.584411621094	483.6461486816407	168.1761551397474	989.6965942382815	482.2312011718751	39.89448362637252	916.959655761719	437.3336181640626	167.9111784980278	982.656677246094	409.2385253906251	108.8162272066081	780.7510375976565	85.54754638671876	159.7178475624646	827.623962402344	104.0358810424805	58.05492402872793	741.7478027343751	51.95127487182619	103.5203760469626	943.8901367187502	20.73579788208008	74.31989194537282	944.4146118164065	38.87152862548829	116.2531535677032	892.0758056640627	20.67609596252442	178.1868656505937	1030.185424804688	1519.869506835938	22.33197663849248	926.3172607421877	1280.392211914063	22.33197663849248	1195.677856445313	1234.977783203125	22.33197663849248	1152.525390625	1420.607543945313	22.23227489079067	990.829772949219	1446.348876953125	-219.6455385149378	1037.130737304688	1437.936279296875	-176.1371861577316	969.4090576171877	1103.270141601563	-258.8717543254914	945.3963623046877	1100.186279296875	-174.535390332801	932.6378173828127	1092.05126953125	-210.2361499973812	1007.337097167969	834.4769287109377	-239.5967179865834	932.6641845703127	851.476013183594	-265.4190523397495	1012.003112792969	745.3239135742189	-244.7565623451693	907.5262451171877	771.274841308594	-246.8581665756566	1030.103393554688	1429.246337890625	259.6455385149378	1077.943115234375	1422.536499023438	216.1373355492392	1119.529541015625	1087.340698242188	304.6079114146845	1086.366455078125	1062.27392578125	207.9388096802291	1079.433715820313	1056.50634765625	248.860189315611	1276.726806640625	871.4689941406252	279.4189228109762	1220.396484375	856.8582153320315	306.295032088454	1339.594848632813	800.7778930664065	285.0291244398524	1245.775756835938	761.4102783203126	287.1250341336798	
115	1.14	1182.112548828125	978.483825683594	-119.7296566040048	971.2880859375002	994.9802246093752	-28.94627714519412	970.647888183594	994.026794433594	68.94627714519412	1172.554321289063	972.5244140625002	159.7296566040048	1114.277221679688	882.889587402344	-168.8364664171059	1225.576782226563	489.059539794922	-132.8068082918402	1227.03271484375	480.8886108398439	4.73616952572034	1229.165893554688	429.690887451172	-127.5034208841393	1301.940185546875	442.902313232422	-68.54266881243612	1361.353881835938	76.49279022216798	-119.3286701318263	1378.94580078125	114.886459350586	-17.89666597850206	1333.3310546875	14.57895183563233	-63.35014095580774	1523.816040039063	83.72475433349611	-34.67283560363096	1519.292602539063	99.64954376220706	-75.85478284948589	1483.243408203125	60.18661117553712	-136.6788472364645	1085.055053710938	872.5560302734377	201.77977018891	962.5513916015627	483.6825256347657	168.1761551397474	999.0640258789065	481.5616149902345	39.89448362637252	925.0594482421877	437.8773498535157	167.9111784980278	990.3411254882815	408.8099670410157	108.8162272066081	782.0703735351565	88.5686721801758	159.7178475624646	829.3608398437502	106.3189239501953	58.05492402872793	742.3482666015626	56.06510162353517	103.5203760469626	943.9919433593752	20.7448959350586	74.31989194537282	944.667907714844	39.01039123535157	116.2531535677032	892.2752685546877	20.50938415527344	178.1868656505937	1041.216064453125	1518.632690429688	22.33197663849248	937.069519042969	1279.279052734375	22.33197663849248	1207.232543945313	1233.98828125	22.33197663849248	1163.721435546875	1419.512939453125	22.23227489079067	1001.923645019531	1444.85205078125	-219.6455385149378	1048.223510742188	1436.473022460938	-176.1371861577316	980.5577392578127	1101.71728515625	-258.8717543254914	956.709655761719	1098.667846679688	-174.535390332801	943.8938598632815	1090.554077148438	-210.2361499973812	1017.950988769531	832.8989868164065	-239.5967179865834	943.2486572265627	850.055114746094	-265.4190523397495	1022.034606933594	743.4853515625001	-244.7565623451693	917.687683105469	769.952819824219	-246.8581665756566	1041.094848632813	1428.107421875	259.6455385149378	1089.120849609375	1421.3525390625	216.1373355492392	1130.85302734375	1086.40771484375	304.6079114146845	1097.804443359375	1061.151000976563	207.9388096802291	1090.777709960938	1055.510986328125	248.860189315611	1288.00830078125	870.3934326171877	279.4189228109762	1231.57177734375	855.9314575195315	306.295032088454	1350.870727539063	799.7754516601565	285.0291244398524	1257.006225585938	760.4741821289064	287.1250341336798	
